<?xml version="1.0" encoding="utf-8"?>
<!-- Generator: Adobe Illustrator 27.0.1, SVG Export Plug-In . SVG Version: 6.00 Build 0)  -->
<svg version="1.1" xmlns="http://www.w3.org/2000/svg" xmlns:xlink="http://www.w3.org/1999/xlink" x="0px" y="0px"
	 viewBox="0 0 381.5 460.5" style="enable-background:new 0 0 381.5 460.5;" xml:space="preserve">
<style type="text/css">
	.st0{fill:#FFFFFF;}
	.st1{fill:#969696;}
</style>
<g id="Layer_1">
	<path class="st0" d="M285.8,288.9c0-8,0-10.7,0-10.7s41.3,4.6,53.7-5.5c1.2-1,2.1-2.1,2.7-3.4c0.5-1,0.7-2.1,0.7-3.4v12.8
		c0,0,0,0,0,0.1C342.8,280,340,292.5,285.8,288.9z"/>
	<path class="st0" d="M376.4,194.8c0,0-0.4,13.9-57.2,10.1c0-8,0-10.7,0-10.7s57,6.4,57.2-12.3V194.8z"/>
	<path class="st0" d="M340,98c0,0-0.3,9.8-40.3,7.1c0-5.6,0-7.5,0-7.5s40.2,4.5,40.3-8.7V98z"/>
	<path class="st0" d="M367.4,232.8c0,0-0.7,8-45.6,8c0-6.4,0-5.6,0-8c21.9,0,45.6-3.2,45.6-10.2V232.8z"/>
	<path class="st0" d="M369,148c0,0-0.9,10-57.6,10c0-8,0-7,0-10c27.7,0,57.6-4,57.6-12.9V148z"/>
	<g>
		<path class="st0" d="M36.4,135.6C57.5,52.9,137.4-0.2,221.2,8.5c-1.9-0.5-4.2-1.1-6.1-1.6C124.4-16.5,32.2,38.2,9.1,128.7
			s32,182.7,122.7,205.9c1.9,0.5,4.2,1.1,6.1,1.6C59.9,303.3,15.2,218.7,36.4,135.6z"/>
	</g>
	<path class="st0" d="M353.9,178c0,83.7-67.8,151.5-151.6,151.5c-30.3,0-58.5-8.9-82.2-24.2h0c-8.1-5.2-15.6-11.2-22.5-17.8
		c-6.6-6.3-12.6-13.1-18-20.5c-4.6-6.2-8.6-12.8-12.2-19.7c-3.8-7.3-7-15-9.5-22.9l-5.2-21.8c-1.3-8-2-16.2-2-24.6
		c0-83.7,67.8-151.6,151.5-151.6c32,0,61.6,9.9,86,26.8c7.7,5.3,15,11.4,21.6,18c6.4,6.5,12.2,13.5,17.4,21.1
		c4.3,6.3,8.2,13,11.5,19.9c3.5,7.2,6.4,14.8,8.8,22.6c2.1,7.1,3.7,14.4,4.8,21.9C353.4,163.7,353.9,170.8,353.9,178z"/>
</g>
<g id="OBJECTS">
	<path class="st1" d="M148.5,282.8c11.8,0,21.7-7.9,24.8-18.7h133.9c16.2,0.3,27.1,4.1,32.2,8.6c2.3,2,3.4,4.1,3.5,6.1
		c0,0,0,0.1,0,0.1v-14.7c0-0.1,0-0.2,0-0.2s0.6-12.7-33.2-14.3v-0.2H173.3c-3.1-10.8-13.1-18.7-24.8-18.7
		c-14.3,0-25.9,11.6-25.9,25.9C122.6,271.2,134.2,282.8,148.5,282.8z M148.5,245.4c5.8,0,10.7,4.4,11.4,10.1
		c0.1,0.4,0.1,0.9,0.1,1.4c0,0.9-0.1,1.8-0.3,2.7c-1.2,5-5.7,8.7-11.1,8.7c-6.3,0-11.5-5.1-11.5-11.4
		C137.1,250.6,142.2,245.4,148.5,245.4z"/>
	<path class="st1" d="M211,100.8c7.8,0,14.4-5.2,16.5-12.4h88.9c15.6,0.3,23.7,5.4,23.7,9.9c0-8.3,0-9.9,0-9.9s0.4-8.4-22-9.5v-0.1
		h-90.6c-2.1-7.1-8.7-12.4-16.5-12.4c-9.5,0-17.2,7.7-17.2,17.2S201.5,100.8,211,100.8z M211,76c4.2,0,7.6,3.4,7.6,7.6
		c0,4.2-3.4,7.6-7.6,7.6c-4.2,0-7.6-3.4-7.6-7.6C203.4,79.5,206.8,76,211,76z"/>
	<path class="st1" d="M112.7,198.8c12.4,0,23-8.4,26.3-19.7h194.5v0c28.2-0.6,42.9,8.1,42.9,15.7c0-13.2,0-15.7,0-15.7
		s0.7-14.4-39.5-15.2l0,0H139c-3.3-11.4-13.8-19.7-26.3-19.7c-15.1,0-27.4,12.3-27.4,27.4C85.3,186.5,97.6,198.8,112.7,198.8z
		 M112.7,159.3c6.7,0,12.1,5.4,12.1,12.1c0,6.7-5.4,12.1-12.1,12.1c-6.7,0-12.1-5.4-12.1-12.1C100.6,164.8,106,159.3,112.7,159.3z"
		/>
	<path class="st1" d="M207.8,236c9.7,0,17.8-6.5,20.4-15.3h105.4c21.9-0.4,33.9,6.3,33.9,12.2c0-10.3,0-12.2,0-12.2
		s0.9-11.2-30.4-11.8l0-0.1H228.2c-2.6-8.8-10.7-15.3-20.4-15.3c-11.7,0-21.3,9.5-21.3,21.3C186.5,226.5,196,236,207.8,236z
		 M207.8,205.3c5.2,0,9.4,4.2,9.4,9.4c0,5.2-4.2,9.4-9.4,9.4c-5.2,0-9.4-4.2-9.4-9.4C198.4,209.6,202.6,205.3,207.8,205.3z"/>
	<path class="st1" d="M161.9,152.1c12.5,0,23.1-8.4,26.4-19.9h142.9c24.4,0.7,37.7,8.8,37.7,15.8c0-13.3,0-15.8,0-15.8
		s1.1-14.5-39.6-15.3l0,0h-2.8c-0.2,0-0.4,0-0.7,0l0,0H188.4C185,105.4,174.4,97,161.9,97c-15.2,0-27.6,12.4-27.6,27.6
		C134.4,139.7,146.7,152.1,161.9,152.1z M161.9,112.3c6.7,0,12.2,5.5,12.2,12.2c0,6.7-5.5,12.2-12.2,12.2c-6.7,0-12.2-5.5-12.2-12.2
		C149.7,117.8,155.2,112.3,161.9,112.3z"/>
	<path class="st0" d="M18.8,456.7c-4.9-2.1-8.7-5.1-11.4-8.9c-2.7-3.8-4-8.3-4-13.5v-3.2c0-0.4,0.1-0.8,0.4-1.1
		c0.3-0.3,0.7-0.4,1.1-0.4h11.3c0.4,0,0.8,0.1,1.1,0.4c0.3,0.3,0.4,0.7,0.4,1.1v2.4c0,3.9,1.7,7.1,5.2,9.7c3.5,2.6,8.2,3.9,14.2,3.9
		c5.2,0,9.1-1.1,11.7-3.3c2.6-2.2,3.9-5,3.9-8.5c0-2.4-0.7-4.4-2.2-6c-1.4-1.7-3.5-3.2-6.2-4.5c-2.7-1.4-6.7-3.1-12-5.1
		c-6-2.2-10.9-4.3-14.6-6.2c-3.7-1.9-6.8-4.6-9.3-7.9c-2.5-3.3-3.8-7.5-3.8-12.5c0-7.5,2.7-13.3,8.1-17.7c5.4-4.3,12.7-6.5,21.7-6.5
		c6.4,0,12,1.1,16.8,3.3c4.9,2.2,8.7,5.3,11.4,9.2c2.7,3.9,4.1,8.5,4.1,13.7v2.2c0,0.4-0.1,0.8-0.4,1.1c-0.3,0.3-0.7,0.4-1.1,0.4
		H54.1c-0.4,0-0.8-0.1-1.1-0.4c-0.3-0.3-0.4-0.7-0.4-1.1v-1.4c0-4-1.6-7.4-4.9-10.1c-3.3-2.8-7.8-4.1-13.5-4.1
		c-4.7,0-8.3,1-10.9,2.9c-2.6,2-3.9,4.7-3.9,8.3c0,2.5,0.7,4.6,2,6.2c1.4,1.6,3.4,3.1,6.1,4.4c2.7,1.3,6.9,3,12.6,5
		c6,2.3,10.8,4.4,14.4,6.2c3.6,1.9,6.7,4.5,9.3,7.8c2.6,3.3,3.9,7.5,3.9,12.5c0,7.6-2.8,13.7-8.5,18.2c-5.6,4.5-13.3,6.7-23.1,6.7
		C29.5,459.8,23.8,458.8,18.8,456.7z"/>
	<path class="st0" d="M83,382.4c-1.7-1.7-2.5-3.9-2.5-6.5c0-2.6,0.8-4.8,2.5-6.5c1.7-1.7,3.9-2.5,6.5-2.5c2.6,0,4.8,0.8,6.5,2.5
		c1.7,1.7,2.5,3.9,2.5,6.5c0,2.6-0.8,4.8-2.5,6.5c-1.7,1.7-3.9,2.5-6.5,2.5C86.9,385,84.7,384.1,83,382.4z M82.3,458.4
		c-0.3-0.3-0.4-0.7-0.4-1.1v-62c0-0.4,0.1-0.8,0.4-1.1c0.3-0.3,0.7-0.4,1.1-0.4h11.7c0.4,0,0.8,0.1,1.1,0.4c0.3,0.3,0.4,0.7,0.4,1.1
		v62c0,0.4-0.1,0.8-0.4,1.1c-0.3,0.3-0.7,0.4-1.1,0.4H83.4C83,458.8,82.6,458.7,82.3,458.4z"/>
	<path class="st0" d="M198.4,398.8c3.7,3.9,5.5,9.4,5.5,16.5v42.1c0,0.4-0.1,0.8-0.4,1.1c-0.3,0.3-0.7,0.4-1.1,0.4h-11.6
		c-0.4,0-0.8-0.1-1.1-0.4c-0.3-0.3-0.4-0.7-0.4-1.1v-39c0-3.9-1-7-3.1-9.3c-2.1-2.3-4.9-3.4-8.3-3.4c-3.5,0-6.3,1.1-8.5,3.4
		c-2.2,2.3-3.3,5.3-3.3,9.2v39.2c0,0.4-0.1,0.8-0.4,1.1c-0.3,0.3-0.7,0.4-1.1,0.4H153c-0.4,0-0.8-0.1-1.1-0.4
		c-0.3-0.3-0.4-0.7-0.4-1.1v-39c0-3.9-1.1-7-3.2-9.3c-2.1-2.3-4.9-3.4-8.4-3.4c-3.2,0-5.9,0.9-7.9,2.8c-2.1,1.9-3.3,4.4-3.6,7.6
		v41.3c0,0.4-0.1,0.8-0.4,1.1c-0.3,0.3-0.7,0.4-1.1,0.4h-11.7c-0.4,0-0.8-0.1-1.1-0.4c-0.3-0.3-0.4-0.7-0.4-1.1v-61.9
		c0-0.4,0.1-0.8,0.4-1.1c0.3-0.3,0.7-0.4,1.1-0.4h11.7c0.4,0,0.8,0.1,1.1,0.4c0.3,0.3,0.4,0.7,0.4,1.1v4.2c0,0.3,0.1,0.4,0.3,0.5
		c0.2,0.1,0.3,0,0.5-0.3c1.9-2.4,4.2-4.1,6.9-5.3c2.8-1.1,5.8-1.7,9.2-1.7c4.2,0,7.8,0.8,10.9,2.5c3.1,1.7,5.5,4.2,7.2,7.4
		c0.3,0.3,0.6,0.3,0.9,0c1.9-3.4,4.4-5.9,7.8-7.5c3.3-1.6,7-2.4,11.1-2.4C189.6,392.8,194.7,394.8,198.4,398.8z"/>
	<path class="st0" d="M268.5,457.7l-16.8-36.6c-0.2-0.3-0.4-0.5-0.8-0.5h-15.3c-0.4,0-0.6,0.2-0.6,0.6v36.1c0,0.4-0.1,0.8-0.4,1.1
		c-0.3,0.3-0.7,0.4-1.1,0.4h-11.7c-0.4,0-0.8-0.1-1.1-0.4c-0.3-0.3-0.4-0.7-0.4-1.1v-85.9c0-0.4,0.1-0.8,0.4-1.1
		c0.3-0.3,0.7-0.4,1.1-0.4h35c5.2,0,9.7,1.1,13.7,3.2c4,2.2,7.1,5.2,9.3,9.2c2.2,3.9,3.3,8.5,3.3,13.5c0,5.8-1.5,10.8-4.5,14.9
		c-3,4.1-7.2,7-12.5,8.6c-0.2,0-0.3,0.1-0.4,0.3c-0.1,0.2-0.1,0.3,0,0.5l17.9,37c0.2,0.3,0.3,0.6,0.3,0.8c0,0.7-0.5,1-1.4,1h-12.2
		C269.5,458.8,268.9,458.4,268.5,457.7z M235.1,383.2v25.3c0,0.4,0.2,0.6,0.6,0.6h19.1c4.1,0,7.4-1.2,9.9-3.6
		c2.5-2.4,3.7-5.6,3.7-9.6c0-4-1.3-7.2-3.7-9.7c-2.5-2.5-5.8-3.7-9.9-3.7h-19.1C235.3,382.5,235.1,382.8,235.1,383.2z"/>
	<path class="st0" d="M351.4,426.1l-0.1,3.9c0,1-0.5,1.5-1.5,1.5H310c-0.4,0-0.6,0.2-0.6,0.6c0.3,2.8,0.6,4.7,1.1,5.7
		c2,6.1,7,9.2,14.9,9.3c5.8,0,10.3-2.4,13.7-7.1c0.3-0.5,0.8-0.8,1.3-0.8c0.3,0,0.6,0.1,0.9,0.4l7.9,6.5c0.8,0.6,0.9,1.3,0.4,2
		c-2.6,3.7-6.1,6.6-10.5,8.6c-4.4,2-9.2,3.1-14.6,3.1c-6.6,0-12.2-1.5-16.8-4.5c-4.6-3-8-7.1-10.1-12.5c-2-4.6-2.9-10.9-2.9-19.1
		c0-4.9,0.5-8.9,1.5-12c1.7-5.9,4.9-10.6,9.6-14s10.4-5.1,17-5.1c16.7,0,26.1,8.7,28.2,26.2C351.2,421.1,351.4,423.5,351.4,426.1z
		 M314.9,407.9c-2.1,1.6-3.5,3.8-4.4,6.5c-0.5,1.4-0.8,3.3-1,5.6c-0.2,0.4,0,0.6,0.5,0.6h25.8c0.4,0,0.6-0.2,0.6-0.6
		c-0.2-2.1-0.4-3.7-0.8-4.8c-0.8-3.1-2.3-5.4-4.5-7.1c-2.2-1.7-5.1-2.5-8.5-2.5C319.5,405.6,316.9,406.3,314.9,407.9z"/>
	<path class="st0" d="M365.3,458.4c-0.3-0.3-0.4-0.7-0.4-1.1v-85.9c0-0.4,0.1-0.8,0.4-1.1c0.3-0.3,0.7-0.4,1.1-0.4h11.7
		c0.4,0,0.8,0.1,1.1,0.4c0.3,0.3,0.4,0.7,0.4,1.1v85.9c0,0.4-0.1,0.8-0.4,1.1c-0.3,0.3-0.7,0.4-1.1,0.4h-11.7
		C366,458.8,365.6,458.7,365.3,458.4z"/>
</g>
</svg>
